<svg width="130" height="36" viewBox="0 0 130 36" fill="none" xmlns="http://www.w3.org/2000/svg">
<path fill-rule="evenodd" clip-rule="evenodd" d="M17.604 1.57436C20.361 3.87184 23.1059 6.18401 25.8575 8.49101C26.4079 8.95265 26.9574 9.40834 27.5079 9.8666C28.3355 10.5548 29.1593 11.2448 29.9888 11.9346C30.2627 12.1623 30.552 12.3756 30.7995 12.6372C30.5832 12.8832 30.3157 13.0786 30.0658 13.2903C29.8179 13.5004 29.5634 13.7061 29.3227 13.9236C28.2275 14.8266 27.0783 15.8126 25.944 16.7535C25.6651 16.9848 25.4201 17.2215 25.1138 17.476C25.0408 17.5367 24.8779 17.6932 24.8146 17.6936C24.7296 17.6944 24.5717 17.5216 24.5057 17.4663C24.2044 17.2137 23.9423 16.9868 23.6369 16.7537C22.5108 15.7644 21.3186 14.8421 20.1907 13.8545C18.658 12.5692 17.1508 11.2577 15.7211 9.8668C15.6052 9.91997 15.54 10.0402 15.451 10.1239C14.8369 10.7002 14.1952 11.2858 13.5592 11.8556C12.7334 12.5896 11.9099 13.3157 11.0687 14.0424C10.5101 14.5247 9.97464 15.0028 9.40836 15.4969C8.71049 16.1062 8.04688 16.6847 7.32326 17.2979C7.26288 17.3488 7.19205 17.4088 7.11096 17.476C7.038 17.5365 6.9391 17.6327 6.88898 17.6343C6.81466 17.6365 6.6639 17.4871 6.57991 17.4165C5.15243 16.2167 3.71062 15.0383 2.27462 13.8642C1.86743 13.5149 1.39561 13.1062 0.952228 12.736C0.896104 12.6892 0.780759 12.6168 0.778437 12.5678C0.774179 12.4871 1.14982 12.2125 1.2224 12.1522C1.69964 11.7554 2.13451 11.3636 2.61253 10.9647C4.49307 9.39505 6.35541 7.86491 8.22105 6.28419C9.47474 5.22224 10.6719 4.17557 11.9374 3.13763C12.5519 2.63373 13.1898 2.11694 13.81 1.57416C14.3242 1.12423 14.8921 0.657433 15.4415 0.19877C15.5203 0.133105 15.6642 -0.0119138 15.7117 0.000782793C15.7868 0.0208196 15.8795 0.122194 15.9627 0.188652C16.4943 0.61359 17.1308 1.15577 17.604 1.57436Z" fill="white"/>
<path fill-rule="evenodd" clip-rule="evenodd" d="M0.0354721 13.2308C0.176169 13.3004 0.401245 13.5137 0.537491 13.6266C0.705863 13.7662 0.874041 13.9111 1.02016 14.0323C1.988 14.8351 2.94231 15.6755 3.90628 16.4567C5.22132 17.522 6.46882 18.6443 7.74845 19.7023C9.67737 21.3167 11.5827 22.956 13.5112 24.5706C14.0759 25.0501 14.6049 25.5022 15.2005 25.9857C15.2812 26.0511 15.3914 26.1337 15.413 26.2134C15.4448 26.3305 15.4227 26.514 15.4227 26.6886C15.4227 27.4694 15.4471 28.3107 15.4227 29.093C15.4132 29.4007 15.4518 29.7244 15.4227 29.9934C15.414 30.0746 15.402 30.092 15.336 30.1418C15.4018 30.2001 15.4167 30.22 15.4227 30.3297C15.4355 30.5598 15.4189 30.7935 15.4227 31.0324C15.4488 32.6663 15.4177 34.439 15.4034 35.9997C15.2913 36.007 15.2304 35.8817 15.1427 35.8315C13.8799 34.7657 12.6115 33.7115 11.3394 32.6551C10.7064 32.1294 10.0708 31.6039 9.45694 31.052C8.84461 30.5015 8.19686 29.9865 7.56498 29.459C6.93078 28.9295 6.30781 28.3861 5.67303 27.8558C4.40927 26.8008 3.12751 25.7597 1.86976 24.6894C1.5543 24.421 1.25123 24.1419 0.933455 23.878C0.617419 23.6158 0.297513 23.3605 0.00682957 23.0667C-0.0011052 19.8302 -0.00652406 16.5321 0.0165061 13.2604C0.0155385 13.2435 0.0232797 13.235 0.0354721 13.2308Z" fill="white"/>
<path fill-rule="evenodd" clip-rule="evenodd" d="M31.6975 13.3199C31.7796 13.3832 31.7459 13.5052 31.7459 13.5871C31.7457 15.9923 31.7335 18.3455 31.7459 20.7116C31.749 21.2846 31.7494 21.9271 31.7556 22.5423C31.7573 22.7183 31.7803 23.0038 31.7459 23.1458C31.7141 23.2771 31.4355 23.444 31.3017 23.5614C30.2449 24.4907 29.0912 25.3949 28.039 26.2928C27.7297 26.5564 27.4178 26.8181 27.1027 27.0742C26.6307 27.4587 26.1724 27.8521 25.6934 28.232C25.5337 28.3589 25.3959 28.5083 25.2396 28.6379C22.4285 30.9663 19.6038 33.3306 16.8318 35.6337C16.7618 35.7029 16.6814 35.7761 16.6004 35.8416C16.5226 35.9041 16.4401 35.9939 16.3395 35.9999C16.3114 32.7428 16.3097 29.4588 16.3395 26.1938C16.4759 26.0323 16.6439 25.9022 16.803 25.7682C17.275 25.3703 17.7586 24.9705 18.2413 24.5708C18.8817 24.0405 19.5118 23.4926 20.1526 22.9579C22.0688 21.3592 23.9826 19.7604 25.8964 18.139C27.1735 17.0568 28.4272 16.0024 29.7384 14.9329C30.0581 14.6723 30.3828 14.4092 30.7037 14.1414C31.0372 13.8624 31.3567 13.5653 31.6975 13.3199Z" fill="white"/>
<path fill-rule="evenodd" clip-rule="evenodd" d="M15.6847 14.0396C15.6833 14.0399 15.6894 14.028 15.6967 14.0275C17.0227 13.9631 17.9172 14.5337 18.5814 15.1597C19.2495 15.7896 19.7759 16.7365 19.8243 17.9786C19.8765 19.3126 19.3833 20.2859 18.7455 20.966C18.067 21.6895 17.2378 22.1868 16.0016 22.2428C14.7154 22.301 13.8035 21.7695 13.1285 21.1225C12.4516 20.4738 11.9175 19.5211 11.8738 18.3157C11.8251 16.9746 12.3157 15.9924 12.9409 15.3162C13.5829 14.6219 14.4154 14.1096 15.6847 14.0396Z" fill="white"/>
<path d="M48.8722 12.5276L44.1494 26.2292H41.2939L47.2436 10.4213H49.0676L48.8722 12.5276ZM52.8242 26.2292L48.0905 12.5276L47.8842 10.4213H49.719L55.6904 26.2292H52.8242ZM52.5962 20.3664V22.5269H43.9974V20.3664H52.5962Z" fill="#F8F8F8"/>
<path d="M63.8224 23.8732V18.271C63.8224 17.8512 63.7464 17.4893 63.5944 17.1853C63.4424 16.8813 63.2108 16.646 62.8995 16.4795C62.5955 16.3131 62.2119 16.2298 61.7487 16.2298C61.3216 16.2298 60.9525 16.3022 60.6413 16.447C60.33 16.5917 60.0875 16.7872 59.9138 17.0333C59.7401 17.2794 59.6533 17.558 59.6533 17.8693H57.0476C57.0476 17.406 57.1598 16.9573 57.3841 16.523C57.6085 16.0887 57.9342 15.7015 58.3613 15.3613C58.7883 15.0211 59.2986 14.7533 59.8921 14.5578C60.4856 14.3624 61.1515 14.2647 61.8898 14.2647C62.7729 14.2647 63.5546 14.4131 64.235 14.7098C64.9226 15.0066 65.4618 15.4554 65.8527 16.0561C66.2507 16.6496 66.4498 17.3952 66.4498 18.2927V23.5149C66.4498 24.0506 66.486 24.5319 66.5584 24.9589C66.638 25.3787 66.7502 25.7443 66.8949 26.0555V26.2292H64.2132C64.0902 25.9469 63.9925 25.5886 63.9201 25.1544C63.855 24.7128 63.8224 24.2858 63.8224 23.8732ZM64.2024 19.0852L64.2241 20.703H62.3458C61.8609 20.703 61.4338 20.75 61.0647 20.8441C60.6955 20.931 60.3879 21.0612 60.1418 21.2349C59.8957 21.4087 59.7112 21.6186 59.5881 21.8647C59.4651 22.1108 59.4036 22.3894 59.4036 22.7007C59.4036 23.0119 59.4759 23.2978 59.6207 23.5584C59.7655 23.8117 59.9754 24.0107 60.2504 24.1555C60.5327 24.3003 60.8729 24.3726 61.271 24.3726C61.8066 24.3726 62.2734 24.2641 62.6715 24.0469C63.0769 23.8226 63.3953 23.5511 63.627 23.2327C63.8586 22.9069 63.9816 22.5993 63.9961 22.3098L64.8429 23.4715C64.7561 23.7683 64.6077 24.0867 64.3978 24.4269C64.1879 24.7671 63.9129 25.0928 63.5727 25.4041C63.2397 25.7081 62.838 25.9578 62.3675 26.1532C61.9043 26.3486 61.3687 26.4463 60.7607 26.4463C59.9935 26.4463 59.3095 26.2943 58.7087 25.9903C58.1079 25.6791 57.6375 25.2629 57.2973 24.7418C56.9571 24.2134 56.787 23.6163 56.787 22.9504C56.787 22.3279 56.9028 21.7778 57.1344 21.3001C57.3733 20.8151 57.7207 20.4098 58.1767 20.0841C58.6399 19.7584 59.2045 19.5123 59.8704 19.3458C60.5363 19.1721 61.2963 19.0852 62.1504 19.0852H64.2024Z" fill="#F8F8F8"/>
<path d="M71.8132 16.7184V26.2292H69.1966V14.4818H71.6938L71.8132 16.7184ZM75.4069 14.4058L75.3852 16.8378C75.2259 16.8089 75.0522 16.7872 74.864 16.7727C74.6831 16.7582 74.5021 16.751 74.3212 16.751C73.8724 16.751 73.4779 16.8161 73.1378 16.9464C72.7976 17.0695 72.5117 17.2504 72.28 17.4893C72.0557 17.7209 71.882 18.0032 71.7589 18.3361C71.6359 18.6691 71.5635 19.0418 71.5418 19.4544L70.9446 19.4978C70.9446 18.7595 71.017 18.0755 71.1618 17.4458C71.3065 16.8161 71.5237 16.2624 71.8132 15.7847C72.11 15.307 72.4791 14.9342 72.9206 14.6664C73.3694 14.3986 73.8869 14.2647 74.4732 14.2647C74.6324 14.2647 74.8025 14.2792 74.9835 14.3081C75.1716 14.3371 75.3128 14.3697 75.4069 14.4058Z" fill="#F8F8F8"/>
<path d="M83.2783 23.8732V18.271C83.2783 17.8512 83.2023 17.4893 83.0503 17.1853C82.8983 16.8813 82.6666 16.646 82.3554 16.4795C82.0514 16.3131 81.6678 16.2298 81.2046 16.2298C80.7775 16.2298 80.4084 16.3022 80.0971 16.447C79.7859 16.5917 79.5434 16.7872 79.3697 17.0333C79.196 17.2794 79.1091 17.558 79.1091 17.8693H76.5034C76.5034 17.406 76.6156 16.9573 76.84 16.523C77.0644 16.0887 77.3901 15.7015 77.8172 15.3613C78.2442 15.0211 78.7545 14.7533 79.348 14.5578C79.9415 14.3624 80.6074 14.2647 81.3457 14.2647C82.2287 14.2647 83.0105 14.4131 83.6908 14.7098C84.3784 15.0066 84.9177 15.4554 85.3085 16.0561C85.7066 16.6496 85.9057 17.3952 85.9057 18.2927V23.5149C85.9057 24.0506 85.9419 24.5319 86.0142 24.9589C86.0939 25.3787 86.2061 25.7443 86.3508 26.0555V26.2292H83.6691C83.5461 25.9469 83.4484 25.5886 83.376 25.1544C83.3108 24.7128 83.2783 24.2858 83.2783 23.8732ZM83.6583 19.0852L83.68 20.703H81.8017C81.3168 20.703 80.8897 20.75 80.5206 20.8441C80.1514 20.931 79.8438 21.0612 79.5977 21.2349C79.3516 21.4087 79.1671 21.6186 79.044 21.8647C78.921 22.1108 78.8594 22.3894 78.8594 22.7007C78.8594 23.0119 78.9318 23.2978 79.0766 23.5584C79.2213 23.8117 79.4312 24.0107 79.7063 24.1555C79.9886 24.3003 80.3288 24.3726 80.7269 24.3726C81.2625 24.3726 81.7293 24.2641 82.1274 24.0469C82.5327 23.8226 82.8512 23.5511 83.0828 23.2327C83.3145 22.9069 83.4375 22.5993 83.452 22.3098L84.2988 23.4715C84.212 23.7683 84.0636 24.0867 83.8537 24.4269C83.6438 24.7671 83.3687 25.0928 83.0286 25.4041C82.6956 25.7081 82.2939 25.9578 81.8234 26.1532C81.3602 26.3486 80.8246 26.4463 80.2166 26.4463C79.4493 26.4463 78.7653 26.2943 78.1646 25.9903C77.5638 25.6791 77.0933 25.2629 76.7532 24.7418C76.413 24.2134 76.2429 23.6163 76.2429 22.9504C76.2429 22.3279 76.3587 21.7778 76.5903 21.3001C76.8292 20.8151 77.1766 20.4098 77.6326 20.0841C78.0958 19.7584 78.6604 19.5123 79.3263 19.3458C79.9922 19.1721 80.7522 19.0852 81.6063 19.0852H83.6583Z" fill="#F8F8F8"/>
<path d="M94.0268 14.4818V16.3927H87.404V14.4818H94.0268ZM89.3148 11.6047H91.9314V22.9829C91.9314 23.3448 91.982 23.6235 92.0834 23.8189C92.1919 24.0071 92.3403 24.1338 92.5285 24.1989C92.7167 24.2641 92.9374 24.2966 93.1908 24.2966C93.3717 24.2966 93.5454 24.2858 93.7119 24.2641C93.8784 24.2424 94.0123 24.2206 94.1136 24.1989L94.1245 26.1966C93.9073 26.2618 93.654 26.3197 93.3645 26.3703C93.0822 26.421 92.7565 26.4463 92.3874 26.4463C91.7866 26.4463 91.2546 26.3414 90.7914 26.1315C90.3281 25.9143 89.9662 25.5633 89.7057 25.0784C89.4451 24.5934 89.3148 23.9492 89.3148 23.1458V11.6047Z" fill="#F8F8F8"/>
<path d="M101.225 26.4463C100.356 26.4463 99.5711 26.3052 98.869 26.0229C98.1742 25.7334 97.5807 25.3317 97.0885 24.8178C96.6035 24.3039 96.2308 23.6995 95.9702 23.0047C95.7096 22.3098 95.5793 21.5607 95.5793 20.7572V20.323C95.5793 19.4037 95.7132 18.5713 95.981 17.8258C96.2489 17.0803 96.6216 16.4434 97.0993 15.915C97.577 15.3794 98.1416 14.9704 98.793 14.6881C99.4445 14.4058 100.15 14.2647 100.91 14.2647C101.75 14.2647 102.484 14.4058 103.114 14.6881C103.744 14.9704 104.265 15.3685 104.678 15.8824C105.097 16.3891 105.409 16.9935 105.611 17.6955C105.821 18.3976 105.926 19.1721 105.926 20.019V21.1372H96.8496V19.259H103.342V19.0527C103.328 18.5822 103.234 18.1407 103.06 17.7281C102.893 17.3155 102.636 16.9826 102.289 16.7293C101.942 16.4759 101.478 16.3493 100.899 16.3493C100.465 16.3493 100.078 16.4434 99.7376 16.6315C99.4046 16.8125 99.126 17.0767 98.9016 17.4241C98.6772 17.7715 98.5035 18.1913 98.3805 18.6835C98.2647 19.1685 98.2067 19.715 98.2067 20.323V20.7572C98.2067 21.2711 98.2755 21.7489 98.413 22.1904C98.5578 22.6247 98.7677 23.0047 99.0427 23.3304C99.3178 23.6561 99.6507 23.913 100.042 24.1012C100.432 24.2822 100.878 24.3726 101.377 24.3726C102.007 24.3726 102.568 24.246 103.06 23.9926C103.552 23.7393 103.979 23.381 104.341 22.9178L105.72 24.2532C105.467 24.6224 105.137 24.977 104.732 25.3172C104.327 25.6502 103.831 25.9216 103.244 26.1315C102.665 26.3414 101.992 26.4463 101.225 26.4463Z" fill="#F8F8F8"/>
<path d="M112.766 24.3618C113.193 24.3618 113.577 24.2785 113.917 24.1121C114.264 23.9384 114.543 23.6995 114.753 23.3955C114.97 23.0915 115.09 22.7405 115.111 22.3424H117.576C117.561 23.1024 117.337 23.7936 116.903 24.4161C116.468 25.0385 115.893 25.5344 115.176 25.9035C114.46 26.2654 113.667 26.4463 112.799 26.4463C111.901 26.4463 111.119 26.2943 110.454 25.9903C109.788 25.6791 109.234 25.2521 108.792 24.7092C108.351 24.1664 108.018 23.5403 107.794 22.8309C107.576 22.1216 107.468 21.3616 107.468 20.551V20.171C107.468 19.3603 107.576 18.6003 107.794 17.891C108.018 17.1744 108.351 16.5447 108.792 16.0018C109.234 15.459 109.788 15.0356 110.454 14.7316C111.119 14.4203 111.898 14.2647 112.788 14.2647C113.729 14.2647 114.554 14.4529 115.263 14.8293C115.973 15.1984 116.53 15.7159 116.935 16.3818C117.348 17.0405 117.561 17.8077 117.576 18.6835H115.111C115.09 18.2493 114.981 17.8584 114.786 17.511C114.597 17.1563 114.33 16.874 113.982 16.6641C113.642 16.4542 113.233 16.3493 112.755 16.3493C112.227 16.3493 111.789 16.4578 111.442 16.675C111.094 16.8849 110.823 17.1744 110.627 17.5435C110.432 17.9054 110.291 18.3144 110.204 18.7704C110.124 19.2192 110.084 19.686 110.084 20.171V20.551C110.084 21.0359 110.124 21.5064 110.204 21.9624C110.283 22.4184 110.421 22.8273 110.616 23.1892C110.819 23.5439 111.094 23.8298 111.442 24.0469C111.789 24.2568 112.23 24.3618 112.766 24.3618Z" fill="#F8F8F8"/>
<path d="M122.168 9.55273V26.2292H119.563V9.55273H122.168ZM121.712 19.9212L120.865 19.9104C120.873 19.0997 120.985 18.3506 121.202 17.663C121.426 16.9754 121.738 16.3782 122.136 15.8716C122.541 15.3577 123.026 14.9632 123.591 14.6881C124.155 14.4058 124.781 14.2647 125.469 14.2647C126.048 14.2647 126.569 14.3443 127.032 14.5036C127.503 14.6628 127.908 14.9197 128.248 15.2744C128.588 15.6218 128.845 16.0778 129.019 16.6424C129.2 17.1997 129.291 17.8801 129.291 18.6835V26.2292H126.663V18.6618C126.663 18.0973 126.58 17.6485 126.413 17.3155C126.254 16.9826 126.019 16.7437 125.708 16.599C125.396 16.447 125.016 16.371 124.568 16.371C124.097 16.371 123.681 16.4651 123.319 16.6533C122.965 16.8415 122.668 17.0984 122.429 17.4241C122.19 17.7498 122.009 18.1262 121.886 18.5533C121.77 18.9803 121.712 19.4363 121.712 19.9212Z" fill="#F8F8F8"/>
</svg>
