<svg width="130" height="36" viewBox="0 0 130 36" fill="none" xmlns="http://www.w3.org/2000/svg">
<path fill-rule="evenodd" clip-rule="evenodd" d="M17.604 1.57436C20.361 3.87184 23.1059 6.18401 25.8575 8.49101C26.4079 8.95265 26.9574 9.40834 27.5079 9.8666C28.3355 10.5548 29.1593 11.2448 29.9888 11.9346C30.2627 12.1623 30.552 12.3756 30.7995 12.6372C30.5832 12.8832 30.3157 13.0786 30.0658 13.2903C29.8179 13.5004 29.5634 13.7061 29.3227 13.9236C28.2275 14.8266 27.0783 15.8126 25.944 16.7535C25.6651 16.9848 25.4201 17.2215 25.1138 17.476C25.0408 17.5367 24.8779 17.6932 24.8146 17.6936C24.7296 17.6944 24.5717 17.5216 24.5057 17.4663C24.2044 17.2137 23.9423 16.9868 23.6369 16.7537C22.5108 15.7644 21.3186 14.8421 20.1907 13.8545C18.658 12.5692 17.1508 11.2577 15.7211 9.8668C15.6052 9.91997 15.54 10.0402 15.451 10.1239C14.8369 10.7002 14.1952 11.2858 13.5592 11.8556C12.7334 12.5896 11.9099 13.3157 11.0687 14.0424C10.5101 14.5247 9.97464 15.0028 9.40836 15.4969C8.71049 16.1062 8.04688 16.6847 7.32326 17.2979C7.26288 17.3488 7.19205 17.4088 7.11096 17.476C7.038 17.5365 6.9391 17.6327 6.88898 17.6343C6.81466 17.6365 6.6639 17.4871 6.57991 17.4165C5.15243 16.2167 3.71062 15.0383 2.27462 13.8642C1.86743 13.5149 1.39561 13.1062 0.952228 12.736C0.896104 12.6892 0.780759 12.6168 0.778437 12.5678C0.774179 12.4871 1.14982 12.2125 1.2224 12.1522C1.69964 11.7554 2.13451 11.3636 2.61253 10.9647C4.49307 9.39505 6.35541 7.86491 8.22105 6.28419C9.47474 5.22224 10.6719 4.17557 11.9374 3.13763C12.5519 2.63373 13.1898 2.11694 13.81 1.57416C14.3242 1.12423 14.8921 0.657433 15.4415 0.19877C15.5203 0.133105 15.6642 -0.0119138 15.7117 0.000782793C15.7868 0.0208196 15.8795 0.122194 15.9627 0.188652C16.4943 0.61359 17.1308 1.15577 17.604 1.57436Z" fill="white"/>
<path fill-rule="evenodd" clip-rule="evenodd" d="M0.0354721 13.2308C0.176169 13.3004 0.401245 13.5137 0.537491 13.6266C0.705863 13.7662 0.874041 13.9111 1.02016 14.0323C1.988 14.8351 2.94231 15.6755 3.90628 16.4567C5.22132 17.522 6.46882 18.6443 7.74845 19.7023C9.67737 21.3167 11.5827 22.956 13.5112 24.5706C14.0759 25.0501 14.6049 25.5022 15.2005 25.9857C15.2812 26.0511 15.3914 26.1337 15.413 26.2134C15.4448 26.3305 15.4227 26.514 15.4227 26.6886C15.4227 27.4694 15.4471 28.3107 15.4227 29.093C15.4132 29.4007 15.4518 29.7244 15.4227 29.9934C15.414 30.0746 15.402 30.092 15.336 30.1418C15.4018 30.2001 15.4167 30.22 15.4227 30.3297C15.4355 30.5598 15.4189 30.7935 15.4227 31.0324C15.4488 32.6663 15.4177 34.439 15.4034 35.9997C15.2913 36.007 15.2304 35.8817 15.1427 35.8315C13.8799 34.7657 12.6115 33.7115 11.3394 32.6551C10.7064 32.1294 10.0708 31.6039 9.45694 31.052C8.84461 30.5015 8.19686 29.9865 7.56498 29.459C6.93078 28.9295 6.30781 28.3861 5.67303 27.8558C4.40927 26.8008 3.12751 25.7597 1.86976 24.6894C1.5543 24.421 1.25123 24.1419 0.933455 23.878C0.617419 23.6158 0.297513 23.3605 0.00682957 23.0667C-0.0011052 19.8302 -0.00652406 16.5321 0.0165061 13.2604C0.0155385 13.2435 0.0232797 13.235 0.0354721 13.2308Z" fill="white"/>
<path fill-rule="evenodd" clip-rule="evenodd" d="M31.6975 13.3199C31.7796 13.3832 31.7459 13.5052 31.7459 13.5871C31.7457 15.9923 31.7335 18.3455 31.7459 20.7116C31.749 21.2846 31.7494 21.9271 31.7556 22.5423C31.7573 22.7183 31.7803 23.0038 31.7459 23.1458C31.7141 23.2771 31.4355 23.444 31.3017 23.5614C30.2449 24.4907 29.0912 25.3949 28.039 26.2928C27.7297 26.5564 27.4178 26.8181 27.1027 27.0742C26.6307 27.4587 26.1724 27.8521 25.6934 28.232C25.5337 28.3589 25.3959 28.5083 25.2396 28.6379C22.4285 30.9663 19.6038 33.3306 16.8318 35.6337C16.7618 35.7029 16.6814 35.7761 16.6004 35.8416C16.5226 35.9041 16.4401 35.9939 16.3395 35.9999C16.3114 32.7428 16.3097 29.4588 16.3395 26.1938C16.4759 26.0323 16.6439 25.9022 16.803 25.7682C17.275 25.3703 17.7586 24.9705 18.2413 24.5708C18.8817 24.0405 19.5118 23.4926 20.1526 22.9579C22.0688 21.3592 23.9826 19.7604 25.8964 18.139C27.1735 17.0568 28.4272 16.0024 29.7384 14.9329C30.0581 14.6723 30.3828 14.4092 30.7037 14.1414C31.0372 13.8624 31.3567 13.5653 31.6975 13.3199Z" fill="white"/>
<path fill-rule="evenodd" clip-rule="evenodd" d="M15.6847 14.0396C15.6833 14.0399 15.6894 14.028 15.6967 14.0275C17.0227 13.9631 17.9172 14.5337 18.5814 15.1597C19.2495 15.7896 19.7759 16.7365 19.8243 17.9786C19.8765 19.3126 19.3833 20.2859 18.7455 20.966C18.067 21.6895 17.2378 22.1868 16.0016 22.2428C14.7154 22.301 13.8035 21.7695 13.1285 21.1225C12.4516 20.4738 11.9175 19.5211 11.8738 18.3157C11.8251 16.9746 12.3157 15.9924 12.9409 15.3162C13.5829 14.6219 14.4154 14.1096 15.6847 14.0396Z" fill="white"/>
</svg>

