<?xml version="1.0" standalone="no"?>
<!DOCTYPE svg PUBLIC "-//W3C//DTD SVG 20010904//EN"
 "http://www.w3.org/TR/2001/REC-SVG-20010904/DTD/svg10.dtd">

    <svg version="1.0" xmlns="http://www.w3.org/2000/svg"
    width="130" height="36" viewBox="0 0 500 500">
  
  <g transform="translate(0, 530) scale(0.09, -0.09)"
    fill="#7c3aed" stroke="none">
<path d="M2520 5953 c-63 -52 -146 -124 -185 -158 -38 -34 -160 -135 -270
-225 -110 -90 -321 -268 -470 -395 -301 -258 -609 -517 -880 -740 -284 -233
-536 -449 -533 -455 9 -22 987 -830 1004 -830 22 0 877 743 1290 1122 89 81
165 148 169 148 5 0 49 -39 99 -88 112 -108 366 -332 591 -523 209 -178 577
-485 619 -518 17 -14 63 -53 102 -88 40 -35 79 -63 87 -63 9 0 39 22 69 48 29
27 166 142 303 257 138 115 333 279 434 364 l184 156 -64 57 c-35 31 -244 206
-464 389 -343 285 -1368 1144 -1817 1522 -77 64 -142 117 -146 117 -4 0 -59
-44 -122 -97z"/>
<path d="M57 3853 c-4 -3 -7 -365 -7 -803 l0 -796 48 -45 c62 -60 331 -289
622 -530 267 -221 620 -517 854 -718 291 -248 1001 -841 1008 -841 5 0 8 364
8 808 l0 808 -237 200 c-406 341 -1202 1013 -1343 1135 -74 63 -202 171 -285
239 -82 68 -263 219 -402 337 -138 117 -253 213 -255 213 -3 0 -8 -3 -11 -7z"/>
<path d="M5204 3792 c-38 -32 -198 -164 -357 -295 -158 -130 -416 -346 -575
-481 -158 -134 -564 -475 -902 -758 l-615 -514 -7 -345 c-8 -363 0 -1279 11
-1279 3 0 29 20 56 43 28 24 311 261 630 526 319 266 657 547 750 626 94 79
350 293 570 476 220 182 428 356 461 386 l62 53 -1 806 c0 442 -3 807 -7 809
-4 3 -38 -21 -76 -53z"/>
<path d="M2575 3729 c-150 -23 -267 -83 -368 -188 -84 -88 -124 -154 -163
-266 -24 -70 -28 -95 -28 -205 0 -147 16 -217 75 -330 126 -242 390 -383 656
-350 141 18 247 67 349 163 204 191 274 470 184 737 -63 186 -242 362 -426
419 -75 24 -199 33 -279 20z"/>
</g>
</svg>
